# Blender3D v249 OBJ File: abc3.blend
# www.blender3d.org
v 0.604329 -0.370904 -0.052225
v 3.088793 0.375181 0.000001
v 3.088793 -0.370904 0.000001
v 3.088793 0.375181 0.761007
v 3.088793 -0.370904 0.761007
v -0.290973 0.375181 0.761007
v -0.290973 -0.370904 0.761007
v -0.354862 0.375181 0.763872
v -0.354862 -0.370904 0.763872
v -0.417605 0.375181 0.772467
v -0.417605 -0.370904 0.772467
v -0.479202 0.375181 0.786792
v -0.479202 -0.370904 0.786792
v -0.539652 0.375181 0.806847
v -0.539652 -0.370904 0.806847
v -0.598957 0.375181 0.832632
v -0.598957 -0.370904 0.832632
v -0.635441 0.375181 0.851657
v -0.635441 -0.370904 0.851657
v -0.671477 0.375181 0.872920
v -0.671477 -0.370904 0.872920
v -0.716922 0.375181 0.904327
v -0.716922 -0.370904 0.904327
v -0.756566 0.375181 0.937669
v -0.756566 -0.370904 0.937669
v -0.785171 0.375181 0.966930
v -0.785171 -0.370904 0.966930
v -0.809747 0.375181 0.997534
v -0.809747 -0.370904 0.997534
v -0.830294 0.375181 1.029482
v -0.830294 -0.370904 1.029482
v -0.843831 0.375181 1.056007
v -0.843831 -0.370904 1.056006
v -0.854790 0.375181 1.083391
v -0.854790 -0.370904 1.083391
v -0.863170 0.375181 1.111635
v -0.863170 -0.370904 1.111635
v -0.868971 0.375181 1.140738
v -0.868971 -0.370904 1.140738
v -0.871630 0.375181 1.163129
v -0.871630 -0.370904 1.163129
v -0.872920 0.375181 1.193737
v -0.872920 -0.370904 1.193737
v -0.872920 0.375181 2.312865
v -0.872920 -0.370904 2.312865
v 2.715750 0.375181 2.312865
v 2.715750 -0.370904 2.312865
v 2.715750 0.375181 3.073871
v 2.715750 -0.370904 3.073871
v -0.872920 0.375181 3.073871
v -0.872920 -0.370904 3.073871
v -0.872920 0.375181 4.342216
v -0.872920 -0.370904 4.342216
v 3.088793 0.375181 4.342216
v 3.088793 -0.370904 4.342216
v 3.088793 0.375181 5.103223
v 3.088793 -0.370904 5.103223
v -3.088793 0.375181 5.103223
v -3.088793 -0.370904 5.103223
v -3.088793 0.375181 1.238502
v -3.088793 -0.370904 1.238502
v -3.081702 0.375181 1.101915
v -3.081702 -0.370904 1.101915
v -3.060430 0.375181 0.973278
v -3.060430 -0.370904 0.973278
v -3.024975 0.375181 0.852591
v -3.024975 -0.370904 0.852591
v -2.975340 0.375181 0.739854
v -2.975340 -0.370904 0.739854
v -2.934371 0.375181 0.669114
v -2.934371 -0.370904 0.669114
v -2.887099 0.375181 0.601906
v -2.887099 -0.370904 0.601906
v -2.804373 0.375181 0.507721
v -2.804373 -0.370904 0.507721
v -2.707466 0.375181 0.421485
v -2.707466 -0.370904 0.421485
v -2.596376 0.375181 0.343200
v -2.596376 -0.370904 0.343200
v -2.471106 0.375181 0.272865
v -2.471106 -0.370904 0.272865
v -2.282018 0.375181 0.191452
v -2.282018 -0.370904 0.191452
v -2.067719 0.375181 0.124173
v -2.067719 -0.370904 0.124173
v -1.764390 0.375181 0.059950
v -1.764390 -0.370904 0.059950
v -1.493364 0.375181 0.024472
v -1.493364 -0.370904 0.024472
v -1.119128 0.375181 0.000001
v -1.119128 -0.370904 0.000001
v 0.604329 0.375181 -0.052225
v 0.604330 0.375185 -0.052225
v 3.088794 0.375185 0.761007
v 3.088794 0.375185 0.000001
v -0.290972 0.375185 0.761007
v -1.119126 0.375185 0.000001
v -0.354860 0.375185 0.763872
v -0.417603 0.375185 0.772467
v -0.479200 0.375185 0.786792
v -0.539651 0.375185 0.806847
v -0.598955 0.375185 0.832632
v -0.635439 0.375185 0.851657
v -0.671475 0.375185 0.872920
v -0.716920 0.375185 0.904327
v -0.756564 0.375185 0.937669
v -0.785169 0.375185 0.966930
v -1.493362 0.375185 0.024472
v -0.809745 0.375185 0.997534
v -0.830292 0.375185 1.029482
v -0.843830 0.375185 1.056007
v -1.764388 0.375185 0.059950
v -0.854788 0.375185 1.083391
v -0.863168 0.375185 1.111635
v -2.067717 0.375185 0.124173
v -0.868970 0.375185 1.140738
v -0.871629 0.375185 1.163129
v -2.282016 0.375185 0.191452
v -0.872918 0.375185 1.193737
v -3.088790 0.375185 1.238502
v -0.872918 0.375185 2.312865
v -2.471104 0.375185 0.272865
v 2.715751 0.375185 3.073871
v 2.715751 0.375185 2.312865
v -0.872918 0.375185 3.073871
v -3.088790 0.375185 5.103223
v -0.872918 0.375185 4.342216
v 3.088794 0.375185 5.103223
v 3.088794 0.375185 4.342216
v -2.596374 0.375185 0.343200
v -3.081700 0.375185 1.101915
v -2.707464 0.375185 0.421485
v -3.060427 0.375185 0.973278
v -2.804371 0.375185 0.507721
v -3.024973 0.375185 0.852591
v -2.934369 0.375185 0.669114
v -2.975338 0.375185 0.739854
v -2.887097 0.375185 0.601906
v 3.088794 -0.370900 0.000001
v 3.088794 -0.370900 0.761007
v 0.604331 -0.370900 -0.052225
v -0.290972 -0.370900 0.761007
v -1.119126 -0.370900 0.000001
v -0.354860 -0.370900 0.763872
v -0.417603 -0.370900 0.772467
v -0.479200 -0.370900 0.786792
v -0.539651 -0.370900 0.806847
v -0.598955 -0.370900 0.832632
v -0.635439 -0.370900 0.851657
v -0.671475 -0.370900 0.872920
v -0.716920 -0.370900 0.904327
v -0.756564 -0.370900 0.937669
v -0.785169 -0.370900 0.966930
v -0.809745 -0.370900 0.997534
v -1.493362 -0.370900 0.024472
v -0.830292 -0.370900 1.029482
v -0.843829 -0.370900 1.056006
v -0.854788 -0.370900 1.083391
v -1.764388 -0.370900 0.059950
v -0.863168 -0.370900 1.111634
v -0.868970 -0.370900 1.140738
v -2.067717 -0.370900 0.124173
v -0.871629 -0.370900 1.163129
v -0.872918 -0.370900 1.193737
v -2.282016 -0.370900 0.191452
v -0.872918 -0.370900 2.312865
v -3.088790 -0.370900 1.238502
v 2.715751 -0.370900 2.312865
v -0.872918 -0.370900 3.073871
v 2.715751 -0.370900 3.073871
v -0.872918 -0.370900 4.342216
v -3.088790 -0.370900 5.103223
v 3.088794 -0.370900 4.342216
v 3.088794 -0.370900 5.103223
v -2.471104 -0.370900 0.272865
v -3.081700 -0.370900 1.101915
v -2.596374 -0.370900 0.343200
v -3.060427 -0.370900 0.973278
v -2.707464 -0.370900 0.421485
v -3.024973 -0.370900 0.852591
v -2.804371 -0.370900 0.507721
v -2.975338 -0.370900 0.739854
v -2.934369 -0.370900 0.669114
v -2.887097 -0.370900 0.601906
vt 0.000000 1.000000
vt 0.067448 0.000000
vt 0.067448 1.000000
vt 0.088104 0.000000
vt 0.088104 1.000000
vt 0.179838 0.000000
vt 0.179838 1.000000
vt 0.181574 0.000000
vt 0.181574 1.000000
vt 0.183292 0.000000
vt 0.183292 1.000000
vt 0.185009 0.000000
vt 0.185009 1.000000
vt 0.186738 0.000000
vt 0.186738 1.000000
vt 0.188493 0.000000
vt 0.188493 1.000000
vt 0.189610 0.000000
vt 0.189610 1.000000
vt 0.190745 0.000000
vt 0.190745 1.000000
vt 0.192245 0.000000
vt 0.192245 1.000000
vt 0.193651 0.000000
vt 0.193651 1.000000
vt 0.194761 0.000000
vt 0.194761 1.000000
vt 0.195827 0.000000
vt 0.195827 1.000000
vt 0.196858 0.000000
vt 0.196858 1.000000
vt 0.197666 0.000000
vt 0.197666 1.000000
vt 0.198466 0.000000
vt 0.198466 1.000000
vt 0.199266 0.000000
vt 0.199266 1.000000
vt 0.200072 0.000000
vt 0.200072 1.000000
vt 0.200684 0.000000
vt 0.200684 1.000000
vt 0.201515 0.000000
vt 0.201515 1.000000
vt 0.231891 0.000000
vt 0.231891 1.000000
vt 0.329295 0.000000
vt 0.329295 1.000000
vt 0.349950 0.000000
vt 0.349950 1.000000
vt 0.447354 0.000000
vt 0.447354 1.000000
vt 0.481780 0.000000
vt 0.481780 1.000000
vt 0.589309 0.000000
vt 0.589309 1.000000
vt 0.609964 0.000000
vt 0.609964 1.000000
vt 0.777637 0.000000
vt 0.777637 1.000000
vt 0.882533 0.000000
vt 0.882533 1.000000
vt 0.886246 0.000000
vt 0.886246 1.000000
vt 0.889784 0.000000
vt 0.889784 1.000000
vt 0.893199 0.000000
vt 0.893199 1.000000
vt 0.896542 0.000000
vt 0.896542 1.000000
vt 0.898761 0.000000
vt 0.898761 1.000000
vt 0.900991 0.000000
vt 0.900991 1.000000
vt 0.904393 0.000000
vt 0.904393 1.000000
vt 0.907914 0.000000
vt 0.907914 1.000000
vt 0.911603 0.000000
vt 0.911603 1.000000
vt 0.915502 0.000000
vt 0.915502 1.000000
vt 0.921090 0.000000
vt 0.921090 1.000000
vt 0.927187 0.000000
vt 0.927187 1.000000
vt 0.935602 0.000000
vt 0.935602 1.000000
vt 0.943021 0.000000
vt 0.943021 1.000000
vt 0.953200 0.000000
vt 0.953200 1.000000
vt 1.000000 0.000000
vt 1.000000 1.000000
vt 0.000000 0.000000
vn 0.003906 0.000000 -0.999969
vn 0.462142 0.000000 -0.886776
vn 0.896298 0.000000 -0.443373
vn 0.894406 0.000000 0.447188
vn 0.447188 0.000000 0.894406
vn 0.014924 0.000000 0.999878
vn 0.029847 0.000000 0.999542
vn 0.075167 0.000000 0.997162
vn 0.105502 0.000000 0.994415
vn 0.166112 0.000000 0.986084
vn 0.196417 0.000000 0.980499
vn 0.256203 0.000000 0.966613
vn 0.285684 0.000000 0.958312
vn 0.343120 0.000000 0.939268
vn 0.371105 0.000000 0.928587
vn 0.420148 0.000000 0.907437
vn 0.441389 0.000000 0.897305
vn 0.477767 0.000000 0.878445
vn 0.493057 0.000000 0.869961
vn 0.528581 0.000000 0.848842
vn 0.548723 0.000000 0.835994
vn 0.594134 0.000000 0.804315
vn 0.619221 0.000000 0.785211
vn 0.668142 0.000000 0.744011
vn 0.691977 0.000000 0.721885
vn 0.737388 0.000000 0.675436
vn 0.758965 0.000000 0.651112
vn 0.801141 0.000000 0.598437
vn 0.821619 0.000000 0.570025
vn 0.858547 0.000000 0.512711
vn 0.875118 0.000000 0.483871
vn 0.904111 0.000000 0.427290
vn 0.916684 0.000000 0.399579
vn 0.939390 0.000000 0.342814
vn 0.949492 0.000000 0.313761
vn 0.966918 0.000000 0.255013
vn 0.974273 0.000000 0.225349
vn 0.985473 0.000000 0.169744
vn 0.989593 0.000000 0.143864
vn 0.995666 0.000000 0.092685
vn 0.997711 0.000000 0.067385
vn 0.999603 0.000000 0.028047
vn 0.999878 0.000000 0.014008
vn 0.894406 0.000000 -0.447188
vn 0.447188 0.000000 -0.894406
vn -0.447188 0.000000 0.894406
vn -0.894406 0.000000 0.447188
vn -0.999847 0.000000 -0.017273
vn -0.999390 0.000000 -0.034547
vn -0.996002 0.000000 -0.089053
vn -0.991974 0.000000 -0.126225
vn -0.979156 0.000000 -0.203040
vn -0.970092 0.000000 -0.242683
vn -0.946440 0.000000 -0.322794
vn -0.931669 0.000000 -0.363231
vn -0.899808 0.000000 -0.436262
vn -0.883145 0.000000 -0.469039
vn -0.850276 0.000000 -0.526322
vn -0.834437 0.000000 -0.551042
vn -0.796747 0.000000 -0.604266
vn -0.774529 0.000000 -0.632527
vn -0.723685 0.000000 -0.690115
vn -0.694784 0.000000 -0.719199
vn -0.636097 0.000000 -0.771599
vn -0.606464 0.000000 -0.795068
vn -0.547838 0.000000 -0.836543
vn -0.518998 0.000000 -0.854762
vn -0.458754 0.000000 -0.888546
vn -0.427351 0.000000 -0.904080
vn -0.363903 0.000000 -0.931425
vn -0.331889 0.000000 -0.943297
vn -0.268990 0.000000 -0.963134
vn -0.238166 0.000000 -0.971221
vn -0.181463 0.000000 -0.983367
vn -0.155675 0.000000 -0.987793
vn -0.108310 0.000000 -0.994110
vn -0.086795 0.000000 -0.996216
vn -0.053591 0.000000 -0.998535
vn -0.041932 0.000000 -0.999115
vn -0.013184 0.000000 -0.999908
vn 0.000000 1.000000 0.000000
vn 0.000000 -1.000000 0.000000
usemtl default
s 1
f 1/1/1 2/2/2 3/3/3
f 3/3/3 4/4/4 5/5/5
f 5/5/5 6/6/6 7/7/7
f 7/7/7 8/8/8 9/9/9
f 9/9/9 10/10/10 11/11/11
f 11/11/11 12/12/12 13/13/13
f 13/13/13 14/14/14 15/15/15
f 15/15/15 16/16/16 17/17/17
f 17/17/17 18/18/18 19/19/19
f 19/19/19 20/20/20 21/21/21
f 21/21/21 22/22/22 23/23/23
f 23/23/23 24/24/24 25/25/25
f 25/25/25 26/26/26 27/27/27
f 27/27/27 28/28/28 29/29/29
f 29/29/29 30/30/30 31/31/31
f 31/31/31 32/32/32 33/33/33
f 33/33/33 34/34/34 35/35/35
f 35/35/35 36/36/36 37/37/37
f 37/37/37 38/38/38 39/39/39
f 39/39/39 40/40/40 41/41/41
f 41/41/41 42/42/42 43/43/43
f 43/43/43 44/44/44 45/45/45
f 45/45/45 46/46/45 47/47/44
f 47/47/44 48/48/4 49/49/5
f 49/49/5 50/50/5 51/51/4
f 51/51/4 52/52/44 53/53/45
f 53/53/45 54/54/45 55/55/44
f 55/55/44 56/56/4 57/57/5
f 57/57/5 58/58/46 59/59/47
f 59/59/47 60/60/48 61/61/49
f 61/61/49 62/62/50 63/63/51
f 63/63/51 64/64/52 65/65/53
f 65/65/53 66/66/54 67/67/55
f 67/67/55 68/68/56 69/69/57
f 69/69/57 70/70/58 71/71/59
f 71/71/59 72/72/60 73/73/61
f 73/73/61 74/74/62 75/75/63
f 75/75/63 76/76/64 77/77/65
f 77/77/65 78/78/66 79/79/67
f 79/79/67 80/80/68 81/81/69
f 81/81/69 82/82/70 83/83/71
f 83/83/71 84/84/72 85/85/73
f 85/85/73 86/86/74 87/87/75
f 87/87/75 88/88/76 89/89/77
f 89/89/77 90/90/78 91/91/79
f 92/92/80 1/93/1 91/91/79
f 91/91/79 90/90/78 92/92/80
f 2/2/2 1/1/1 92/94/80
f 2/2/2 4/4/4 3/3/3
f 4/4/4 6/6/6 5/5/5
f 6/6/6 8/8/8 7/7/7
f 8/8/8 10/10/10 9/9/9
f 10/10/10 12/12/12 11/11/11
f 12/12/12 14/14/14 13/13/13
f 14/14/14 16/16/16 15/15/15
f 16/16/16 18/18/18 17/17/17
f 18/18/18 20/20/20 19/19/19
f 20/20/20 22/22/22 21/21/21
f 22/22/22 24/24/24 23/23/23
f 24/24/24 26/26/26 25/25/25
f 26/26/26 28/28/28 27/27/27
f 28/28/28 30/30/30 29/29/29
f 30/30/30 32/32/32 31/31/31
f 32/32/32 34/34/34 33/33/33
f 34/34/34 36/36/36 35/35/35
f 36/36/36 38/38/38 37/37/37
f 38/38/38 40/40/40 39/39/39
f 40/40/40 42/42/42 41/41/41
f 42/42/42 44/44/44 43/43/43
f 44/44/44 46/46/45 45/45/45
f 46/46/45 48/48/4 47/47/44
f 48/48/4 50/50/5 49/49/5
f 50/50/5 52/52/44 51/51/4
f 52/52/44 54/54/45 53/53/45
f 54/54/45 56/56/4 55/55/44
f 56/56/4 58/58/46 57/57/5
f 58/58/46 60/60/48 59/59/47
f 60/60/48 62/62/50 61/61/49
f 62/62/50 64/64/52 63/63/51
f 64/64/52 66/66/54 65/65/53
f 66/66/54 68/68/56 67/67/55
f 68/68/56 70/70/58 69/69/57
f 70/70/58 72/72/60 71/71/59
f 72/72/60 74/74/62 73/73/61
f 74/74/62 76/76/64 75/75/63
f 76/76/64 78/78/66 77/77/65
f 78/78/66 80/80/68 79/79/67
f 80/80/68 82/82/70 81/81/69
f 82/82/70 84/84/72 83/83/71
f 84/84/72 86/86/74 85/85/73
f 86/86/74 88/88/76 87/87/75
f 88/88/76 90/90/78 89/89/77
f 93/94/81 94/94/81 95/94/81
f 93/94/81 96/94/81 94/94/81
f 93/94/81 97/94/81 96/94/81
f 96/94/81 97/94/81 98/94/81
f 98/94/81 97/94/81 99/94/81
f 99/94/81 97/94/81 100/94/81
f 100/94/81 97/94/81 101/94/81
f 101/94/81 97/94/81 102/94/81
f 102/94/81 97/94/81 103/94/81
f 103/94/81 97/94/81 104/94/81
f 104/94/81 97/94/81 105/94/81
f 105/94/81 97/94/81 106/94/81
f 106/94/81 97/94/81 107/94/81
f 107/94/81 108/94/81 109/94/81
f 107/94/81 97/94/81 108/94/81
f 109/94/81 108/94/81 110/94/81
f 110/94/81 108/94/81 111/94/81
f 111/94/81 112/94/81 113/94/81
f 111/94/81 108/94/81 112/94/81
f 113/94/81 112/94/81 114/94/81
f 114/94/81 115/94/81 116/94/81
f 114/94/81 112/94/81 115/94/81
f 116/94/81 115/94/81 117/94/81
f 117/94/81 118/94/81 119/94/81
f 117/94/81 115/94/81 118/94/81
f 119/94/81 120/94/81 121/94/81
f 119/94/81 122/94/81 120/94/81
f 119/94/81 118/94/81 122/94/81
f 121/94/81 123/94/81 124/94/81
f 121/94/81 125/94/81 123/94/81
f 121/94/81 120/94/81 125/94/81
f 125/94/81 126/94/81 127/94/81
f 125/94/81 120/94/81 126/94/81
f 127/94/81 128/94/81 129/94/81
f 127/94/81 126/94/81 128/94/81
f 120/94/81 130/94/81 131/94/81
f 120/94/81 122/94/81 130/94/81
f 131/94/81 132/94/81 133/94/81
f 131/94/81 130/94/81 132/94/81
f 133/94/81 134/94/81 135/94/81
f 133/94/81 132/94/81 134/94/81
f 135/94/81 136/94/81 137/94/81
f 135/94/81 138/94/81 136/94/81
f 135/94/81 134/94/81 138/94/81
f 139/94/82 140/94/82 141/94/82
f 140/94/82 142/94/82 141/94/82
f 142/94/82 143/94/82 141/94/82
f 144/94/82 143/94/82 142/94/82
f 145/94/82 143/94/82 144/94/82
f 146/94/82 143/94/82 145/94/82
f 147/94/82 143/94/82 146/94/82
f 148/94/82 143/94/82 147/94/82
f 149/94/82 143/94/82 148/94/82
f 150/94/82 143/94/82 149/94/82
f 151/94/82 143/94/82 150/94/82
f 152/94/82 143/94/82 151/94/82
f 153/94/82 143/94/82 152/94/82
f 154/94/82 155/94/82 153/94/82
f 156/94/82 155/94/82 154/94/82
f 157/94/82 155/94/82 156/94/82
f 158/94/82 159/94/82 157/94/82
f 160/94/82 159/94/82 158/94/82
f 161/94/82 162/94/82 160/94/82
f 163/94/82 162/94/82 161/94/82
f 164/94/82 165/94/82 163/94/82
f 166/94/82 167/94/82 164/94/82
f 168/94/82 169/94/82 166/94/82
f 170/94/82 169/94/82 168/94/82
f 169/94/82 167/94/82 166/94/82
f 171/94/82 172/94/82 169/94/82
f 173/94/82 174/94/82 171/94/82
f 174/94/82 172/94/82 171/94/82
f 172/94/82 167/94/82 169/94/82
f 167/94/82 175/94/82 164/94/82
f 176/94/82 177/94/82 167/94/82
f 178/94/82 179/94/82 176/94/82
f 180/94/82 181/94/82 178/94/82
f 182/94/82 183/94/82 180/94/82
f 183/94/82 184/94/82 180/94/82
f 184/94/82 181/94/82 180/94/82
f 181/94/82 179/94/82 178/94/82
f 179/94/82 177/94/82 176/94/82
f 177/94/82 175/94/82 167/94/82
f 175/94/82 165/94/82 164/94/82
f 165/94/82 162/94/82 163/94/82
f 162/94/82 159/94/82 160/94/82
f 159/94/82 155/94/82 157/94/82
f 155/94/82 143/94/82 153/94/82
