# Blender3D v249 OBJ File: abc3.blend
# www.blender3d.org
v 1.107936 -0.336950 0.000001
v -1.107936 -0.336950 1.238503
v 0.861728 -0.336950 0.000001
v 1.107936 -0.336950 5.103224
v 0.537181 -0.336950 0.020519
v 0.115643 -0.336950 0.082071
v -0.169666 -0.336950 0.144960
v -0.377991 -0.336950 0.211567
v -0.525877 -0.336950 0.275196
v -1.104355 -0.336950 1.132260
v -0.626861 -0.336950 0.330368
v -1.096333 -0.336950 1.051134
v -0.691472 -0.336950 0.372820
v -0.749816 -0.336950 0.417809
v -1.018406 -0.336950 0.761008
v -0.817859 -0.336950 0.475705
v -1.050637 -0.336950 0.845763
v -1.075706 -0.336950 0.935890
v -0.979013 -0.336950 0.681625
v -0.878739 -0.336950 0.538973
v -0.932457 -0.336950 0.607613
v -1.107936 -0.336950 5.103224
v 0.861729 0.409138 0.000001
v -1.107935 0.409138 1.238503
v 1.107938 0.409138 0.000001
v 0.537182 0.409138 0.020519
v 0.115644 0.409138 0.082071
v -0.169665 0.409138 0.144960
v -0.377989 0.409138 0.211567
v -0.525875 0.409138 0.275196
v -0.626859 0.409138 0.330368
v -1.104354 0.409138 1.132260
v -0.691470 0.409138 0.372820
v -1.096332 0.409138 1.051134
v -0.749814 0.409138 0.417809
v -0.817857 0.409138 0.475705
v -1.018405 0.409138 0.761008
v -0.878738 0.409138 0.538973
v -0.979012 0.409138 0.681625
v -0.932456 0.409138 0.607613
v -1.050636 0.409138 0.845763
v -1.075704 0.409138 0.935890
v 1.107938 0.409138 5.103224
v -1.107935 0.409138 5.103224
v 1.107938 -0.336948 0.000001
v 1.107938 0.409138 0.000001
v 1.107938 -0.336948 5.103224
v 0.861729 0.409138 0.000001
v 0.861729 -0.336948 0.000001
v 0.537182 0.409138 0.020519
v 0.537182 -0.336948 0.020519
v 0.115644 0.409138 0.082071
v 0.115644 -0.336948 0.082071
v -0.169665 0.409138 0.144960
v -0.169665 -0.336948 0.144960
v -0.377989 0.409138 0.211567
v -0.377989 -0.336948 0.211567
v -0.525875 0.409138 0.275196
v -0.525875 -0.336948 0.275196
v -0.626859 0.409138 0.330368
v -0.626859 -0.336948 0.330368
v -0.691470 0.409138 0.372820
v -0.691470 -0.336948 0.372820
v -0.749814 0.409138 0.417809
v -0.749814 -0.336948 0.417809
v -0.817857 0.409138 0.475705
v -0.817857 -0.336948 0.475705
v -0.878738 0.409138 0.538973
v -0.878738 -0.336948 0.538973
v -0.932456 0.409138 0.607613
v -0.932456 -0.336948 0.607613
v -0.979012 0.409138 0.681625
v -0.979012 -0.336948 0.681625
v -1.018405 0.409138 0.761008
v -1.018405 -0.336948 0.761008
v -1.050636 0.409138 0.845763
v -1.050636 -0.336948 0.845763
v -1.075704 0.409138 0.935890
v -1.075704 -0.336948 0.935890
v -1.096332 0.409138 1.051134
v -1.096332 -0.336948 1.051134
v -1.104354 0.409138 1.132260
v -1.104354 -0.336948 1.132260
v -1.107935 0.409138 1.238503
v -1.107935 -0.336948 1.238503
v -1.107935 0.409138 5.103224
v -1.107935 -0.336948 5.103224
v 1.107938 0.409138 5.103224
vt 0.000000 0.000000
vt 1.000000 1.000000
vt 1.000000 0.000000
vt 0.636746 1.000000
vt 0.000000 1.000000
vt 0.017525 0.000000
vt 0.017525 1.000000
vt 0.040673 0.000000
vt 0.040673 1.000000
vt 0.070997 0.000000
vt 0.070997 1.000000
vt 0.091793 0.000000
vt 0.091793 1.000000
vt 0.107362 0.000000
vt 0.107362 1.000000
vt 0.118821 0.000000
vt 0.118821 1.000000
vt 0.127012 0.000000
vt 0.127012 1.000000
vt 0.132515 0.000000
vt 0.132515 1.000000
vt 0.137760 0.000000
vt 0.137760 1.000000
vt 0.144119 0.000000
vt 0.144119 1.000000
vt 0.150369 0.000000
vt 0.150369 1.000000
vt 0.156573 0.000000
vt 0.156573 1.000000
vt 0.162797 0.000000
vt 0.162797 1.000000
vt 0.169105 0.000000
vt 0.169105 1.000000
vt 0.175560 0.000000
vt 0.175560 1.000000
vt 0.182218 0.000000
vt 0.182218 1.000000
vt 0.190552 0.000000
vt 0.190552 1.000000
vt 0.196355 0.000000
vt 0.196355 1.000000
vt 0.203922 0.000000
vt 0.203922 1.000000
vt 0.479017 0.000000
vt 0.479017 1.000000
vt 0.636746 0.000000
vn 0.000000 -1.000000 0.000000
vn 0.000000 1.000000 0.000000
vn 0.447188 0.000000 -0.894406
vn 0.894406 0.000000 -0.447188
vn 0.894406 0.000000 0.447188
vn -0.021027 0.000000 -0.999756
vn -0.042055 0.000000 -0.999084
vn -0.090274 0.000000 -0.995911
vn -0.117435 0.000000 -0.993072
vn -0.168157 0.000000 -0.985748
vn -0.191748 0.000000 -0.981414
vn -0.245247 0.000000 -0.969451
vn -0.275033 0.000000 -0.961425
vn -0.335093 0.000000 -0.942167
vn -0.365368 0.000000 -0.930845
vn -0.423688 0.000000 -0.905789
vn -0.451796 0.000000 -0.892087
vn -0.503037 0.000000 -0.864254
vn -0.526261 0.000000 -0.850307
vn -0.569964 0.000000 -0.821650
vn -0.590503 0.000000 -0.807031
vn -0.623249 0.000000 -0.782006
vn -0.635731 0.000000 -0.771905
vn -0.672933 0.000000 -0.739677
vn -0.697134 0.000000 -0.716910
vn -0.743736 0.000000 -0.668447
vn -0.766076 0.000000 -0.642720
vn -0.808100 0.000000 -0.589038
vn -0.827754 0.000000 -0.561052
vn -0.863857 0.000000 -0.503708
vn -0.880306 0.000000 -0.474349
vn -0.909696 0.000000 -0.415235
vn -0.922666 0.000000 -0.385540
vn -0.945158 0.000000 -0.326579
vn -0.954741 0.000000 -0.297403
vn -0.971343 0.000000 -0.237587
vn -0.978332 0.000000 -0.206977
vn -0.988617 0.000000 -0.150365
vn -0.992218 0.000000 -0.124393
vn -0.997040 0.000000 -0.076846
vn -0.998444 0.000000 -0.055269
vn -0.999725 0.000000 -0.022462
vn -0.999908 0.000000 -0.011231
vn -0.894406 0.000000 0.447188
vn -0.447188 0.000000 0.894406
vn 0.447188 0.000000 0.894406
usemtl default
s 1
f 1/1/1 2/1/1 3/1/1
f 1/1/1 4/1/1 2/1/1
f 3/1/1 2/1/1 5/1/1
f 5/1/1 2/1/1 6/1/1
f 6/1/1 2/1/1 7/1/1
f 7/1/1 2/1/1 8/1/1
f 8/1/1 2/1/1 9/1/1
f 9/1/1 10/1/1 11/1/1
f 9/1/1 2/1/1 10/1/1
f 11/1/1 12/1/1 13/1/1
f 11/1/1 10/1/1 12/1/1
f 13/1/1 12/1/1 14/1/1
f 14/1/1 15/1/1 16/1/1
f 14/1/1 17/1/1 15/1/1
f 14/1/1 18/1/1 17/1/1
f 14/1/1 12/1/1 18/1/1
f 16/1/1 19/1/1 20/1/1
f 16/1/1 15/1/1 19/1/1
f 20/1/1 19/1/1 21/1/1
f 2/1/1 4/1/1 22/1/1
f 23/1/2 24/1/2 25/1/2
f 24/1/2 23/1/2 26/1/2
f 27/1/2 24/1/2 26/1/2
f 28/1/2 24/1/2 27/1/2
f 29/1/2 24/1/2 28/1/2
f 30/1/2 24/1/2 29/1/2
f 31/1/2 32/1/2 30/1/2
f 33/1/2 34/1/2 31/1/2
f 35/1/2 34/1/2 33/1/2
f 36/1/2 37/1/2 35/1/2
f 38/1/2 39/1/2 36/1/2
f 40/1/2 39/1/2 38/1/2
f 39/1/2 37/1/2 36/1/2
f 37/1/2 41/1/2 35/1/2
f 41/1/2 42/1/2 35/1/2
f 42/1/2 34/1/2 35/1/2
f 34/1/2 32/1/2 31/1/2
f 32/1/2 24/1/2 30/1/2
f 24/1/2 43/1/2 25/1/2
f 44/1/2 43/1/2 24/1/2
f 45/2/3 46/3/4 47/4/5
f 45/5/3 48/6/6 46/1/4
f 48/6/6 45/5/3 49/7/7
f 49/7/7 50/8/8 48/6/6
f 51/9/9 50/8/8 49/7/7
f 51/9/9 52/10/10 50/8/8
f 53/11/11 52/10/10 51/9/9
f 53/11/11 54/12/12 52/10/10
f 55/13/13 54/12/12 53/11/11
f 55/13/13 56/14/14 54/12/12
f 57/15/15 56/14/14 55/13/13
f 57/15/15 58/16/16 56/14/14
f 59/17/17 58/16/16 57/15/15
f 59/17/17 60/18/18 58/16/16
f 61/19/19 60/18/18 59/17/17
f 61/19/19 62/20/20 60/18/18
f 63/21/21 62/20/20 61/19/19
f 63/21/21 64/22/22 62/20/20
f 65/23/23 64/22/22 63/21/21
f 65/23/23 66/24/24 64/22/22
f 67/25/25 66/24/24 65/23/23
f 67/25/25 68/26/26 66/24/24
f 69/27/27 68/26/26 67/25/25
f 69/27/27 70/28/28 68/26/26
f 71/29/29 70/28/28 69/27/27
f 71/29/29 72/30/30 70/28/28
f 73/31/31 72/30/30 71/29/29
f 73/31/31 74/32/32 72/30/30
f 75/33/33 74/32/32 73/31/31
f 75/33/33 76/34/34 74/32/32
f 77/35/35 76/34/34 75/33/33
f 77/35/35 78/36/36 76/34/34
f 79/37/37 78/36/36 77/35/35
f 79/37/37 80/38/38 78/36/36
f 81/39/39 80/38/38 79/37/37
f 81/39/39 82/40/40 80/38/38
f 83/41/41 82/40/40 81/39/39
f 83/41/41 84/42/42 82/40/40
f 85/43/43 84/42/42 83/41/41
f 85/43/43 86/44/44 84/42/42
f 87/45/45 86/44/44 85/43/43
f 87/45/45 88/46/46 86/44/44
f 47/4/5 88/46/46 87/45/45
f 46/3/4 88/46/46 47/4/5
