# Blender3D v249 OBJ File: abc3.blend
# www.blender3d.org
v -2.320325 -0.338352 0.000008
v -2.320325 0.407734 0.000008
v -2.320325 -0.338352 3.611060
v -3.357383 0.407734 0.000008
v -3.357383 -0.338352 0.000008
v -3.357383 0.407734 5.103230
v -3.357383 -0.338352 5.103230
v -1.626466 0.407734 5.103230
v -1.626466 -0.338352 5.103230
v -1.558279 0.407734 5.099792
v -1.558279 -0.338352 5.099792
v -1.487419 0.407734 5.089478
v -1.487419 -0.338352 5.089478
v -1.404505 0.407734 5.069656
v -1.404505 -0.338352 5.069656
v -1.308409 0.407734 5.037426
v -1.308409 -0.338352 5.037426
v -1.238656 0.407734 5.008471
v -1.238656 -0.338352 5.008471
v -1.156432 0.407734 4.968935
v -1.156432 -0.338352 4.968935
v -1.020570 0.407734 4.893282
v -1.020570 -0.338352 4.893282
v -0.914772 0.407734 4.821198
v -0.914772 -0.338352 4.821198
v -0.833917 0.407734 4.755477
v -0.833917 -0.338352 4.755477
v -0.761007 0.407734 4.685422
v -0.761007 -0.338352 4.685422
v 2.320325 0.407734 1.492178
v 2.320325 -0.338352 1.492178
v 2.320325 0.407734 5.103230
v 2.320325 -0.338352 5.103230
v 3.357383 0.407734 5.103230
v 3.357383 -0.338352 5.103230
v 3.357383 0.407734 0.000008
v 3.357383 -0.338352 0.000008
v 1.626466 0.407734 0.000008
v 1.626466 -0.338352 0.000008
v 1.558566 0.407734 0.003255
v 1.558566 -0.338352 0.003255
v 1.479668 0.407734 0.014670
v 1.479668 -0.338352 0.014670
v 1.398110 0.407734 0.034304
v 1.398110 -0.338352 0.034304
v 1.294817 0.407734 0.069463
v 1.294817 -0.338352 0.069462
v 1.236802 0.407734 0.093815
v 1.236802 -0.338352 0.093815
v 1.167623 0.407734 0.126842
v 1.167623 -0.338352 0.126842
v 1.017213 0.407734 0.211837
v 1.017213 -0.338352 0.211836
v 0.901271 0.407734 0.292473
v 0.901271 -0.338352 0.292473
v 0.827408 0.407734 0.353652
v 0.827408 -0.338352 0.353652
v 0.761007 0.407734 0.417816
v 0.761007 -0.338352 0.417816
v -2.320325 0.407734 3.611060
v -3.357382 0.407734 0.000008
v -2.320324 0.407734 3.611060
v -2.320324 0.407734 0.000008
v -3.357382 0.407734 5.103230
v -1.626465 0.407734 5.103230
v -1.558279 0.407734 5.099792
v -1.487419 0.407734 5.089478
v -1.404504 0.407734 5.069656
v -1.308409 0.407734 5.037426
v -1.238656 0.407734 5.008471
v -1.156431 0.407734 4.968935
v -1.020569 0.407734 4.893282
v -0.914771 0.407734 4.821198
v -0.833917 0.407734 4.755477
v -0.761006 0.407734 4.685422
v 2.320325 0.407734 1.492178
v 0.761007 0.407734 0.417816
v 2.320325 0.407734 5.103230
v 3.357383 0.407734 5.103230
v 3.357383 0.407734 0.000008
v 1.626466 0.407734 0.000008
v 1.398110 0.407734 0.034304
v 1.558566 0.407734 0.003255
v 1.479668 0.407734 0.014670
v 1.294818 0.407734 0.069463
v 1.236802 0.407734 0.093815
v 1.167624 0.407734 0.126842
v 1.017213 0.407734 0.211837
v 0.901271 0.407734 0.292473
v 0.827409 0.407734 0.353652
v -2.320324 -0.338352 0.000008
v -2.320324 -0.338352 3.611060
v -3.357382 -0.338352 0.000008
v -3.357382 -0.338352 5.103230
v -1.626465 -0.338352 5.103230
v -1.487419 -0.338352 5.089478
v -1.558279 -0.338352 5.099792
v -1.404504 -0.338352 5.069656
v -1.308409 -0.338352 5.037426
v -1.238656 -0.338352 5.008471
v -1.156431 -0.338352 4.968935
v -1.020569 -0.338352 4.893282
v -0.914771 -0.338352 4.821198
v -0.833917 -0.338352 4.755477
v -0.761006 -0.338352 4.685422
v 0.761007 -0.338352 0.417816
v 2.320325 -0.338352 1.492178
v 3.357383 -0.338352 5.103230
v 2.320325 -0.338352 5.103230
v 3.357383 -0.338352 0.000008
v 1.626466 -0.338352 0.000008
v 1.398110 -0.338352 0.034304
v 1.294818 -0.338352 0.069462
v 1.236802 -0.338352 0.093815
v 1.167624 -0.338352 0.126842
v 1.017213 -0.338352 0.211836
v 0.901271 -0.338352 0.292473
v 0.827409 -0.338352 0.353652
v 1.479668 -0.338352 0.014670
v 1.558566 -0.338352 0.003255
vt 1.000000 1.000000
vt 1.000000 0.000000
vt 0.893177 1.000000
vt 0.000000 1.000000
vt 0.030678 0.000000
vt 0.000000 0.000000
vt 0.030678 1.000000
vt 0.181643 0.000000
vt 0.181643 1.000000
vt 0.232847 0.000000
vt 0.232847 1.000000
vt 0.234867 0.000000
vt 0.234867 1.000000
vt 0.236985 0.000000
vt 0.236985 1.000000
vt 0.239507 0.000000
vt 0.239507 1.000000
vt 0.242506 0.000000
vt 0.242506 1.000000
vt 0.244740 0.000000
vt 0.244740 1.000000
vt 0.247439 0.000000
vt 0.247439 1.000000
vt 0.252039 0.000000
vt 0.252039 1.000000
vt 0.255826 0.000000
vt 0.255826 1.000000
vt 0.258908 0.000000
vt 0.258908 1.000000
vt 0.261900 0.000000
vt 0.261900 1.000000
vt 0.393171 0.000000
vt 0.393171 1.000000
vt 0.499994 0.000000
vt 0.499994 1.000000
vt 0.530672 0.000000
vt 0.530672 1.000000
vt 0.681637 0.000000
vt 0.681637 1.000000
vt 0.732841 0.000000
vt 0.732841 1.000000
vt 0.734852 0.000000
vt 0.734852 1.000000
vt 0.737210 0.000000
vt 0.737210 1.000000
vt 0.739692 0.000000
vt 0.739692 1.000000
vt 0.742920 0.000000
vt 0.742920 1.000000
vt 0.744781 0.000000
vt 0.744781 1.000000
vt 0.747049 0.000000
vt 0.747049 1.000000
vt 0.752159 0.000000
vt 0.752159 1.000000
vt 0.756337 0.000000
vt 0.756337 1.000000
vt 0.759174 0.000000
vt 0.759174 1.000000
vt 0.761906 0.000000
vt 0.761906 1.000000
vt 0.893177 0.000000
vn 0.447188 0.000000 -0.894406
vn 0.894406 0.000000 -0.447188
vn 0.879025 0.000000 -0.476699
vn -0.447188 0.000000 -0.894406
vn -0.894406 0.000000 -0.447188
vn -0.894406 0.000000 0.447188
vn -0.447188 0.000000 0.894406
vn 0.016785 0.000000 0.999847
vn 0.033570 0.000000 0.999420
vn 0.081637 0.000000 0.996643
vn 0.112918 0.000000 0.993591
vn 0.173681 0.000000 0.984771
vn 0.203192 0.000000 0.979125
vn 0.261208 0.000000 0.965270
vn 0.289743 0.000000 0.957091
vn 0.339946 0.000000 0.940428
vn 0.361766 0.000000 0.932249
vn 0.400159 0.000000 0.916440
vn 0.416822 0.000000 0.908963
vn 0.451216 0.000000 0.892392
vn 0.468947 0.000000 0.883206
vn 0.512467 0.000000 0.858669
vn 0.538011 0.000000 0.842921
vn 0.586077 0.000000 0.810236
vn 0.608661 0.000000 0.793420
vn 0.651936 0.000000 0.758263
vn 0.672658 0.000000 0.739952
vn 0.701865 0.000000 0.712272
vn 0.710776 0.000000 0.703391
vn 0.301523 0.000000 0.953429
vn -0.879025 0.000000 0.476699
vn 0.447188 0.000000 0.894406
vn 0.894406 0.000000 0.447188
vn -0.015900 0.000000 -0.999847
vn -0.031831 0.000000 -0.999481
vn -0.079653 0.000000 -0.996796
vn -0.111484 0.000000 -0.993744
vn -0.173620 0.000000 -0.984802
vn -0.203955 0.000000 -0.978973
vn -0.263680 0.000000 -0.964599
vn -0.293100 0.000000 -0.956053
vn -0.344005 0.000000 -0.938963
vn -0.365612 0.000000 -0.930754
vn -0.401715 0.000000 -0.915738
vn -0.416333 0.000000 -0.909177
vn -0.451430 0.000000 -0.892270
vn -0.471816 0.000000 -0.881680
vn -0.518784 0.000000 -0.854885
vn -0.545152 0.000000 -0.838313
vn -0.593738 0.000000 -0.804651
vn -0.616047 0.000000 -0.787683
vn -0.657308 0.000000 -0.753594
vn -0.676321 0.000000 -0.736595
vn -0.703207 0.000000 -0.710959
vn -0.711447 0.000000 -0.702719
vn -0.301523 0.000000 -0.953429
vn 0.000000 1.000000 0.000000
vn 0.000000 -1.000000 0.000000
usemtl default
s 1
f 1/1/1 2/2/2 3/3/3
f 1/4/1 4/5/4 2/6/2
f 4/5/4 1/4/1 5/7/5
f 5/7/5 6/8/6 4/5/4
f 7/9/7 6/8/6 5/7/5
f 7/9/7 8/10/8 6/8/6
f 9/11/9 8/10/8 7/9/7
f 9/11/9 10/12/10 8/10/8
f 11/13/11 10/12/10 9/11/9
f 11/13/11 12/14/12 10/12/10
f 13/15/13 12/14/12 11/13/11
f 13/15/13 14/16/14 12/14/12
f 15/17/15 14/16/14 13/15/13
f 15/17/15 16/18/16 14/16/14
f 17/19/17 16/18/16 15/17/15
f 17/19/17 18/20/18 16/18/16
f 19/21/19 18/20/18 17/19/17
f 19/21/19 20/22/20 18/20/18
f 21/23/21 20/22/20 19/21/19
f 21/23/21 22/24/22 20/22/20
f 23/25/23 22/24/22 21/23/21
f 23/25/23 24/26/24 22/24/22
f 25/27/25 24/26/24 23/25/23
f 25/27/25 26/28/26 24/26/24
f 27/29/27 26/28/26 25/27/25
f 27/29/27 28/30/28 26/28/26
f 29/31/29 28/30/28 27/29/27
f 29/31/29 30/32/30 28/30/28
f 31/33/31 30/32/30 29/31/29
f 31/33/31 32/34/6 30/32/30
f 33/35/7 32/34/6 31/33/31
f 33/35/7 34/36/32 32/34/6
f 35/37/33 34/36/32 33/35/7
f 35/37/33 36/38/2 34/36/32
f 37/39/1 36/38/2 35/37/33
f 37/39/1 38/40/34 36/38/2
f 39/41/35 38/40/34 37/39/1
f 39/41/35 40/42/36 38/40/34
f 41/43/37 40/42/36 39/41/35
f 41/43/37 42/44/38 40/42/36
f 43/45/39 42/44/38 41/43/37
f 43/45/39 44/46/40 42/44/38
f 45/47/41 44/46/40 43/45/39
f 45/47/41 46/48/42 44/46/40
f 47/49/43 46/48/42 45/47/41
f 47/49/43 48/50/44 46/48/42
f 49/51/45 48/50/44 47/49/43
f 49/51/45 50/52/46 48/50/44
f 51/53/47 50/52/46 49/51/45
f 51/53/47 52/54/48 50/52/46
f 53/55/49 52/54/48 51/53/47
f 53/55/49 54/56/50 52/54/48
f 55/57/51 54/56/50 53/55/49
f 55/57/51 56/58/52 54/56/50
f 57/59/53 56/58/52 55/57/51
f 57/59/53 58/60/54 56/58/52
f 59/61/55 58/60/54 57/59/53
f 59/61/55 60/62/56 58/60/54
f 3/3/3 60/62/56 59/61/55
f 2/2/2 60/62/56 3/3/3
f 61/6/57 62/6/57 63/6/57
f 62/6/57 61/6/57 64/6/57
f 65/6/57 62/6/57 64/6/57
f 66/6/57 67/6/57 65/6/57
f 67/6/57 68/6/57 65/6/57
f 68/6/57 62/6/57 65/6/57
f 69/6/57 62/6/57 68/6/57
f 70/6/57 62/6/57 69/6/57
f 71/6/57 62/6/57 70/6/57
f 72/6/57 62/6/57 71/6/57
f 73/6/57 62/6/57 72/6/57
f 74/6/57 62/6/57 73/6/57
f 75/6/57 62/6/57 74/6/57
f 76/6/57 77/6/57 75/6/57
f 78/6/57 79/6/57 76/6/57
f 79/6/57 80/6/57 76/6/57
f 80/6/57 81/6/57 76/6/57
f 81/6/57 82/6/57 76/6/57
f 83/6/57 84/6/57 81/6/57
f 84/6/57 82/6/57 81/6/57
f 82/6/57 85/6/57 76/6/57
f 85/6/57 86/6/57 76/6/57
f 86/6/57 87/6/57 76/6/57
f 87/6/57 88/6/57 76/6/57
f 88/6/57 89/6/57 76/6/57
f 89/6/57 90/6/57 76/6/57
f 90/6/57 77/6/57 76/6/57
f 77/6/57 62/6/57 75/6/57
f 91/6/58 92/6/58 93/6/58
f 93/6/58 92/6/58 94/6/58
f 94/6/58 92/6/58 95/6/58
f 95/6/58 96/6/58 97/6/58
f 95/6/58 98/6/58 96/6/58
f 95/6/58 92/6/58 98/6/58
f 98/6/58 92/6/58 99/6/58
f 99/6/58 92/6/58 100/6/58
f 100/6/58 92/6/58 101/6/58
f 101/6/58 92/6/58 102/6/58
f 102/6/58 92/6/58 103/6/58
f 103/6/58 92/6/58 104/6/58
f 104/6/58 92/6/58 105/6/58
f 105/6/58 106/6/58 107/6/58
f 105/6/58 92/6/58 106/6/58
f 107/6/58 108/6/58 109/6/58
f 107/6/58 110/6/58 108/6/58
f 107/6/58 111/6/58 110/6/58
f 107/6/58 112/6/58 111/6/58
f 107/6/58 113/6/58 112/6/58
f 107/6/58 114/6/58 113/6/58
f 107/6/58 115/6/58 114/6/58
f 107/6/58 116/6/58 115/6/58
f 107/6/58 117/6/58 116/6/58
f 107/6/58 118/6/58 117/6/58
f 107/6/58 106/6/58 118/6/58
f 111/6/58 119/6/58 120/6/58
f 111/6/58 112/6/58 119/6/58
