# Blender3D v249 OBJ File: abc3.blend
# www.blender3d.org
v -1.372797 0.302765 4.342227
v 0.843076 0.302765 4.342227
v -1.372797 0.302765 1.238513
v -3.088793 0.302765 5.103234
v -3.088793 0.302765 4.342227
v -0.828901 0.302765 0.295088
v -1.366082 0.302765 1.100860
v -0.701320 0.302765 0.231298
v -0.549764 0.302765 0.173235
v -0.330236 0.302765 0.111936
v 0.005121 0.302765 0.050987
v 0.270381 0.302765 0.021200
v 0.596868 0.302765 0.000012
v -0.921296 0.302765 0.352030
v -1.351041 0.302765 0.996647
v -1.005096 0.302765 0.414223
v -1.327405 0.302765 0.897686
v -1.080302 0.302765 0.481669
v -1.295174 0.302765 0.803978
v -1.146912 0.302765 0.554368
v -1.254348 0.302765 0.715522
v -1.204928 0.302765 0.632319
v 0.843076 0.302765 0.000012
v 3.088792 0.302765 5.103234
v 3.088792 0.302765 4.342227
v -1.372797 -0.443314 4.342227
v -1.372797 0.302765 1.238513
v -1.372797 -0.443314 1.238513
v -1.366082 0.302765 1.100860
v -1.366082 -0.443314 1.100860
v -1.351041 0.302765 0.996647
v -1.351041 -0.443314 0.996647
v -1.327405 0.302765 0.897686
v -1.327405 -0.443314 0.897686
v -1.295174 0.302765 0.803978
v -1.295174 -0.443314 0.803978
v -1.254348 0.302765 0.715522
v -1.254348 -0.443314 0.715522
v -1.204928 0.302765 0.632319
v -1.204928 -0.443314 0.632319
v -1.146912 0.302765 0.554368
v -1.146912 -0.443314 0.554368
v -1.080302 0.302765 0.481669
v -1.080302 -0.443314 0.481669
v -1.005096 0.302765 0.414223
v -1.005096 -0.443314 0.414223
v -0.921296 0.302765 0.352030
v -0.921296 -0.443314 0.352029
v -0.828901 0.302765 0.295088
v -0.828901 -0.443314 0.295088
v -0.701320 0.302765 0.231298
v -0.701320 -0.443314 0.231298
v -0.549763 0.302765 0.173235
v -0.549763 -0.443314 0.173235
v -0.330235 0.302765 0.111936
v -0.330235 -0.443314 0.111936
v 0.005121 0.302765 0.050987
v 0.005121 -0.443314 0.050987
v 0.270381 0.302765 0.021200
v 0.270381 -0.443314 0.021200
v 0.596868 0.302765 0.000012
v 0.596868 -0.443314 0.000012
v 0.843076 0.302765 0.000012
v 0.843076 -0.443314 0.000012
v 0.843076 0.302765 4.342227
v 0.843076 -0.443314 4.342227
v 3.088793 0.302765 4.342227
v 3.088793 -0.443314 4.342227
v 3.088793 0.302765 5.103234
v 3.088793 -0.443314 5.103234
v -3.088793 0.302765 5.103234
v -3.088793 -0.443314 5.103234
v -3.088793 0.302765 4.342227
v -3.088793 -0.443314 4.342227
v -1.372797 0.302765 4.342227
v -1.372797 -0.443314 1.238513
v 0.843076 -0.443314 4.342227
v -1.372797 -0.443314 4.342227
v -1.366082 -0.443314 1.100860
v -0.828901 -0.443314 0.295088
v -1.351041 -0.443314 0.996647
v -0.921296 -0.443314 0.352029
v -1.327405 -0.443314 0.897686
v -1.005096 -0.443314 0.414223
v -1.295174 -0.443314 0.803978
v -1.080302 -0.443314 0.481669
v -1.254348 -0.443314 0.715522
v -1.146912 -0.443314 0.554368
v -1.204928 -0.443314 0.632319
v -0.701320 -0.443314 0.231298
v -0.549764 -0.443314 0.173235
v -0.330236 -0.443314 0.111936
v 0.005121 -0.443314 0.050987
v 0.270381 -0.443314 0.021200
v 0.596868 -0.443314 0.000012
v 0.843076 -0.443314 0.000012
v -3.088793 -0.443314 5.103234
v 3.088792 -0.443314 4.342227
v 3.088792 -0.443314 5.103234
v -3.088793 -0.443314 4.342227
vt 0.000000 0.000000
vt 0.000000 1.000000
vt 0.141276 0.000000
vt 0.141276 1.000000
vt 0.147550 0.000000
vt 0.147550 1.000000
vt 0.152342 0.000000
vt 0.152342 1.000000
vt 0.156974 0.000000
vt 0.156974 1.000000
vt 0.161484 0.000000
vt 0.161484 1.000000
vt 0.165919 0.000000
vt 0.165919 1.000000
vt 0.170324 0.000000
vt 0.170324 1.000000
vt 0.174747 0.000000
vt 0.174747 1.000000
vt 0.179235 0.000000
vt 0.179235 1.000000
vt 0.183833 0.000000
vt 0.183833 1.000000
vt 0.188584 0.000000
vt 0.188584 1.000000
vt 0.193524 0.000000
vt 0.193524 1.000000
vt 0.200016 0.000000
vt 0.200016 1.000000
vt 0.207404 0.000000
vt 0.207404 1.000000
vt 0.217779 0.000000
vt 0.217779 1.000000
vt 0.233294 0.000000
vt 0.233294 1.000000
vt 0.245444 0.000000
vt 0.245444 1.000000
vt 0.260336 0.000000
vt 0.260336 1.000000
vt 0.271543 0.000000
vt 0.271543 1.000000
vt 0.469195 0.000000
vt 0.469195 1.000000
vt 0.571416 0.000000
vt 0.571416 1.000000
vt 0.606056 0.000000
vt 0.606056 1.000000
vt 0.887251 0.000000
vt 0.887251 1.000000
vt 0.921890 0.000000
vt 0.921890 1.000000
vt 1.000000 0.000000
vt 1.000000 1.000000
vn 0.000000 1.000000 0.000000
vn -0.894406 0.000000 -0.447188
vn -0.999847 0.000000 -0.016236
vn -0.999451 0.000000 -0.032472
vn -0.996765 0.000000 -0.080172
vn -0.993744 0.000000 -0.111576
vn -0.984924 0.000000 -0.172826
vn -0.979217 0.000000 -0.202673
vn -0.964629 0.000000 -0.263558
vn -0.955626 0.000000 -0.294565
vn -0.934111 0.000000 -0.356914
vn -0.921537 0.000000 -0.388226
vn -0.892941 0.000000 -0.450117
vn -0.876858 0.000000 -0.480697
vn -0.841578 0.000000 -0.540086
vn -0.822352 0.000000 -0.568926
vn -0.781457 0.000000 -0.623920
vn -0.759789 0.000000 -0.650136
vn -0.714835 0.000000 -0.699271
vn -0.691610 0.000000 -0.722251
vn -0.644368 0.000000 -0.764702
vn -0.620441 0.000000 -0.784234
vn -0.572649 0.000000 -0.819788
vn -0.548845 0.000000 -0.835902
vn -0.499252 0.000000 -0.866421
vn -0.473434 0.000000 -0.880825
vn -0.417829 0.000000 -0.908505
vn -0.387982 0.000000 -0.921659
vn -0.328440 0.000000 -0.944487
vn -0.298807 0.000000 -0.954283
vn -0.239113 0.000000 -0.970977
vn -0.209052 0.000000 -0.977874
vn -0.156468 0.000000 -0.987671
vn -0.134068 0.000000 -0.990966
vn -0.095981 0.000000 -0.995361
vn -0.080386 0.000000 -0.996734
vn -0.043184 0.000000 -0.999054
vn -0.021577 0.000000 -0.999756
vn 0.447188 0.000000 -0.894406
vn 0.894406 0.000000 -0.447188
vn 0.894406 0.000000 0.447188
vn 0.447188 0.000000 0.894406
vn -0.447188 0.000000 0.894406
vn -0.894406 0.000000 0.447188
vn -0.447188 0.000000 -0.894406
vn 0.000000 -1.000000 0.000000
usemtl default
s 1
f 1/1/1 2/1/1 3/1/1
f 1/1/1 4/1/1 2/1/1
f 1/1/1 5/1/1 4/1/1
f 3/1/1 6/1/1 7/1/1
f 3/1/1 8/1/1 6/1/1
f 3/1/1 9/1/1 8/1/1
f 3/1/1 10/1/1 9/1/1
f 3/1/1 11/1/1 10/1/1
f 3/1/1 12/1/1 11/1/1
f 3/1/1 13/1/1 12/1/1
f 3/1/1 2/1/1 13/1/1
f 7/1/1 14/1/1 15/1/1
f 7/1/1 6/1/1 14/1/1
f 15/1/1 16/1/1 17/1/1
f 15/1/1 14/1/1 16/1/1
f 17/1/1 18/1/1 19/1/1
f 17/1/1 16/1/1 18/1/1
f 19/1/1 20/1/1 21/1/1
f 19/1/1 18/1/1 20/1/1
f 21/1/1 20/1/1 22/1/1
f 13/1/1 2/1/1 23/1/1
f 2/1/1 24/1/1 25/1/1
f 2/1/1 4/1/1 24/1/1
f 26/2/2 27/3/3 28/4/4
f 28/4/4 29/5/5 30/6/6
f 30/6/6 31/7/7 32/8/8
f 32/8/8 33/9/9 34/10/10
f 34/10/10 35/11/11 36/12/12
f 36/12/12 37/13/13 38/14/14
f 38/14/14 39/15/15 40/16/16
f 40/16/16 41/17/17 42/18/18
f 42/18/18 43/19/19 44/20/20
f 44/20/20 45/21/21 46/22/22
f 46/22/22 47/23/23 48/24/24
f 48/24/24 49/25/25 50/26/26
f 50/26/26 51/27/27 52/28/28
f 52/28/28 53/29/29 54/30/30
f 54/30/30 55/31/31 56/32/32
f 56/32/32 57/33/33 58/34/34
f 58/34/34 59/35/35 60/36/36
f 60/36/36 61/37/37 62/38/38
f 62/38/38 63/39/39 64/40/40
f 64/40/40 65/41/40 66/42/39
f 66/42/39 67/43/39 68/44/40
f 68/44/40 69/45/41 70/46/42
f 70/46/42 71/47/43 72/48/44
f 72/48/44 73/49/2 74/50/45
f 75/51/45 26/52/2 74/50/45
f 74/50/45 73/49/2 75/51/45
f 27/3/3 26/2/2 75/1/45
f 27/3/3 29/5/5 28/4/4
f 29/5/5 31/7/7 30/6/6
f 31/7/7 33/9/9 32/8/8
f 33/9/9 35/11/11 34/10/10
f 35/11/11 37/13/13 36/12/12
f 37/13/13 39/15/15 38/14/14
f 39/15/15 41/17/17 40/16/16
f 41/17/17 43/19/19 42/18/18
f 43/19/19 45/21/21 44/20/20
f 45/21/21 47/23/23 46/22/22
f 47/23/23 49/25/25 48/24/24
f 49/25/25 51/27/27 50/26/26
f 51/27/27 53/29/29 52/28/28
f 53/29/29 55/31/31 54/30/30
f 55/31/31 57/33/33 56/32/32
f 57/33/33 59/35/35 58/34/34
f 59/35/35 61/37/37 60/36/36
f 61/37/37 63/39/39 62/38/38
f 63/39/39 65/41/40 64/40/40
f 65/41/40 67/43/39 66/42/39
f 67/43/39 69/45/41 68/44/40
f 69/45/41 71/47/43 70/46/42
f 71/47/43 73/49/2 72/48/44
f 76/1/46 77/1/46 78/1/46
f 80/1/46 76/1/46 79/1/46
f 81/1/46 82/1/46 79/1/46
f 83/1/46 84/1/46 81/1/46
f 85/1/46 86/1/46 83/1/46
f 87/1/46 88/1/46 85/1/46
f 89/1/46 88/1/46 87/1/46
f 88/1/46 86/1/46 85/1/46
f 86/1/46 84/1/46 83/1/46
f 84/1/46 82/1/46 81/1/46
f 82/1/46 80/1/46 79/1/46
f 90/1/46 76/1/46 80/1/46
f 91/1/46 76/1/46 90/1/46
f 92/1/46 76/1/46 91/1/46
f 93/1/46 76/1/46 92/1/46
f 94/1/46 76/1/46 93/1/46
f 95/1/46 76/1/46 94/1/46
f 77/1/46 76/1/46 95/1/46
f 96/1/46 77/1/46 95/1/46
f 77/1/46 97/1/46 78/1/46
f 98/1/46 99/1/46 77/1/46
f 99/1/46 97/1/46 77/1/46
f 97/1/46 100/1/46 78/1/46
